<?xml version="1.0" encoding="UTF-8" standalone="no"?>
<!-- Created with Inkscape (http://www.inkscape.org/) -->

<svg
   width="512"
   height="512"
   viewBox="0 0 512 512"
   version="1.1"
   id="svg1"
   xml:space="preserve"
   xmlns="http://www.w3.org/2000/svg"
   xmlns:svg="http://www.w3.org/2000/svg"><defs
     id="defs1" /><g
     id="layer2"
     style="display:inline"
     transform="matrix(2.6996045,0,0,2.6996045,-513.79591,-512.22901)"><path
       style="fill:#000000;fill-opacity:1;fill-rule:nonzero;stroke:none;stroke-width:1.33333"
       d="m 314.38104,250.54327 -53.49333,-53.48934 a 7.884,7.884 0 0 0 -11.15734,0 l -11.10933,11.10934 14.088,14.088 a 9.3733333,9.3733333 0 0 1 9.64,2.24533 9.3906667,9.3906667 0 0 1 2.23067,9.70267 l 13.57733,13.57866 a 9.368,9.368 0 0 1 9.704,2.22934 9.3866667,9.3866667 0 0 1 0,13.276 9.3933333,9.3933333 0 0 1 -13.28133,0 9.384,9.384 0 0 1 -2.04267,-10.21334 l -12.66667,-12.66266 v 33.32933 a 9.3866667,9.3866667 0 0 1 2.48,15.05333 9.3866667,9.3866667 0 0 1 -13.276,0 9.3866667,9.3866667 0 0 1 0,-13.27733 9.3786667,9.3786667 0 0 1 3.07734,-2.052 v -33.636 a 9.3346667,9.3346667 0 0 1 -3.07734,-2.04667 9.3986667,9.3986667 0 0 1 -2.02133,-10.26666 l -13.89067,-13.89067 -36.67733,36.672 a 7.8906667,7.8906667 0 0 0 0,11.16133 l 53.49467,53.496 a 7.8933333,7.8933333 0 0 0 11.15733,0 l 53.244,-53.24533 a 7.9,7.9 0 0 0 0,-11.16133"
       id="path2"
       clip-path="url(#clipPath3)" /><path
       style="display:inline;fill:#000000;stroke-width:0.260885"
       d="m 365.03482,371.88268 c -9.05539,5.53657 -21.54029,1.42111 -27.03878,-7.25111 -11.5014,-14.60931 -22.27023,-29.80068 -33.52461,-44.57861 -3.53977,-2.99227 -8.51464,-2.46212 -12.8183,-1.58276 -2.26078,-1.11306 3.87464,-4.5179 4.90105,-6.46862 7.08987,-7.1842 14.16337,-14.39179 21.57439,-21.24794 -0.66715,4.74196 -2.22484,10.30757 1.23958,14.36504 4.16356,3.35493 8.70834,6.22559 12.89875,9.58109 11.61916,8.6962 23.54707,17.03368 34.64032,26.39588 5.94928,5.606 8.90138,14.72319 5.42231,22.4415 -1.59317,3.38304 -4.12619,6.34524 -7.29471,8.34553 z m -0.75757,-11.96214 c 2.17032,-5.16161 -1.72445,-11.64157 -7.45477,-11.63635 -6.63979,-0.92405 -11.64761,7.34022 -8.11835,12.91759 3.40356,6.14846 13.32526,5.49954 15.57312,-1.28124 z m -90.56272,-34.81069 c -4.19863,2.09668 -10.07132,-0.52131 -10.33712,-5.47539 0.14351,-5.44034 5.98526,-8.13161 8.95759,-12.02199 14.07491,-14.14507 28.03489,-28.42767 42.41096,-42.25793 4.70977,-3.45455 12.06932,1.92742 10.03,7.47072 -2.39437,5.43559 -7.76538,8.73402 -11.53456,13.15473 -13.08918,13.12761 -26.10143,26.34914 -39.52687,39.12986 z"
       id="path3" /></g></svg>
